<svg xmlns="http://www.w3.org/2000/svg" width="407" height="407" viewBox="0 0 407 407"><path fill="#D0D0D0" d="M347.445 0H59.555C26.644 0 0 26.644 0 59.555v287.89C0 380.356 26.644 407 59.555 407h287.89C380.356 407 407 380.356 407 347.445V59.555C407 26.644 380.356 0 347.445 0zM130.129 346.71H65.292V161.824h64.837V346.71zm-32.418-209.78h-.421c-21.743 0-35.806-14.964-35.806-33.648 0-19.105 14.484-33.648 36.648-33.648 22.164 0 35.806 14.543 36.227 33.648 0 18.684-14.063 33.648-36.648 33.648zm266.647 209.78h-64.837V246.079c0-26.223-9.386-44.086-32.839-44.086-17.911 0-28.559 12.062-33.227 23.703-1.682 4.21-2.103 10.105-2.103 15.579v105.435h-64.837s.842-171.045 0-188.726h64.837v26.744c8.603-12.903 24.182-31.186 58.671-31.186 42.902 0 74.335 28.067 74.335 88.361v104.807z"/></svg>